<svg width="38" height="82" viewBox="0 0 38 82" fill="none" xmlns="http://www.w3.org/2000/svg">
<path fill-rule="evenodd" clip-rule="evenodd" d="M11.3566 32.663H26.4228C28.642 38.0391 30.0298 45.909 30.0298 50.1674C30.0298 59.323 25.5827 59.7866 18.8897 59.7866C12.1967 59.7866 7.74963 59.323 7.74963 50.1674C7.74963 45.909 9.13742 38.0391 11.3566 32.663Z" fill="none"/>
<path fill-rule="evenodd" clip-rule="evenodd" d="M29.9719 0.210388L35.8443 3.60084L24.6587 22.9748H30.2186L32.3934 27.1325C34.2243 30.6328 35.5292 35.0592 36.3767 38.9581C37.2313 42.8894 37.7793 47.0259 37.7793 50.1663C37.7793 55.7396 36.4235 61.5234 31.1787 64.9161C28.8891 66.3971 26.4665 66.9786 24.5083 67.2475C22.5714 67.5135 20.5638 67.5351 18.8897 67.5351C17.2155 67.5351 15.208 67.5135 13.271 67.2475C11.3129 66.9786 8.89021 66.3971 6.60066 64.9161C1.35584 61.5234 0 55.7396 0 50.1663C0 47.0259 0.548047 42.8894 1.40263 38.9581C2.25017 35.0592 3.55498 30.6328 5.3859 27.1325L7.56069 22.9748H16.8288L29.9719 0.210388ZM12.3593 34.1357C10.4238 39.2833 9.22234 46.3307 9.22234 50.1674C9.22234 54.556 10.2877 56.3186 11.6097 57.1738C12.3339 57.6422 13.2817 57.9412 14.5258 58.112C15.7739 58.2835 17.2166 58.3138 18.8897 58.3138C20.5627 58.3138 22.0054 58.2835 23.2535 58.112C24.4976 57.9412 25.4454 57.6422 26.1697 57.1738C27.4916 56.3186 28.557 54.556 28.557 50.1674C28.557 46.3307 27.3555 39.2833 25.4201 34.1357H12.3593ZM37.8701 72.374H0V81.4734H37.8701V72.374Z" fill="#FFFFFF"/>
</svg>
