<svg width="255" height="255" viewBox="0 0 255 255" fill="none" xmlns="http://www.w3.org/2000/svg">
<path d="M127.5 0C197.916 0 255 57.0837 255 127.5C255 197.916 197.916 255 127.5 255C108.811 255 91.0604 250.978 75.0674 243.754L171.435 133.503L111.968 90.4775L36.9297 217.237C14.101 194.198 0 162.496 0 127.5C0 57.0837 57.0837 0 127.5 0ZM120.081 136.831C120.624 136.746 121.18 136.769 121.714 136.899C122.248 137.03 122.751 137.266 123.193 137.592C123.64 137.908 124.019 138.311 124.308 138.775C124.596 139.24 124.789 139.758 124.875 140.299C124.961 140.839 124.937 141.392 124.806 141.923C124.675 142.454 124.438 142.954 124.111 143.393L110.466 162.297C109.81 163.19 108.828 163.787 107.733 163.959C106.639 164.131 105.521 163.863 104.623 163.215C104.177 162.898 103.799 162.496 103.511 162.031C103.222 161.566 103.03 161.048 102.944 160.508C102.859 159.968 102.882 159.416 103.013 158.885C103.143 158.354 103.379 157.853 103.705 157.414L117.352 138.51C117.673 138.063 118.079 137.686 118.548 137.397C119.016 137.109 119.538 136.916 120.081 136.831ZM117.936 67.1084C116.055 71.9574 115.037 77.0989 114.931 82.2988L178.278 128.119C183.178 126.389 187.74 123.819 191.758 120.524L117.936 67.1084ZM189.463 45.9922C179.371 38.6607 166.781 35.633 154.459 37.5732C142.137 39.5136 131.087 46.2637 123.736 56.3418C122.985 57.3433 122.317 58.3866 121.649 59.4717L197.851 114.64C198.643 113.68 199.436 112.679 200.188 111.636C207.455 101.504 210.407 88.9025 208.396 76.5967C206.386 64.2909 199.577 53.2845 189.463 45.9922Z" fill="#02B5B9"/>
</svg>
