<svg xmlns="http://www.w3.org/2000/svg" width="512" height="512" viewBox="0 0 512 512" fill="none" stroke-linecap="round" stroke-linejoin="round">
  <path fill="#7dd8d2" stroke="none" fill-rule="evenodd" transform="translate(7 8)" d="M24 122C150 112 350 120 488 114L494 332C360 338 160 330 20 336Z"/>
  <path fill="#f9d71c" stroke="none" fill-rule="evenodd" transform="translate(-6 8)" d="M315 215C314 220 313 235 309 243C305 251 297 257 289 263C282 268 273 275 264 276C256 278 245 275 236 273C227 271 218 268 211 262C204 257 197 250 193 242C189 234 187 224 187 215C186 206 188 196 191 188C195 179 201 170 209 165C216 159 226 155 236 154C245 153 255 154 264 157C273 159 282 163 289 168C296 173 302 181 306 189C311 197 313 211 315 215Z"/>
  <path fill="#1c1c1c" stroke="none" fill-rule="evenodd" transform="translate(8 6)" d="M402 18C424 20 446 40 440 66L246 332L204 314L378 36C384 24 392 18 402 18Z"/>
  <path fill="#1c1c1c" stroke="none" fill-rule="evenodd" transform="translate(-6 8)" d="M112 22C90 26 74 46 82 70L268 332L310 314L142 38C134 26 124 20 112 22Z"/>
  <path fill="#f9d71c" stroke="none" fill-rule="evenodd" transform="translate(7 8)" d="M220 420C219 424 217 435 214 441C210 447 204 452 199 457C193 462 187 469 180 471C173 473 164 470 157 468C149 466 141 464 135 459C130 455 125 448 121 442C118 435 116 427 116 420C116 413 119 405 122 399C126 393 131 387 137 382C142 377 149 372 156 370C163 369 172 371 179 373C186 375 194 377 200 381C206 386 212 392 215 398C219 405 221 416 222 420ZM192 420C192 422 190 427 188 430C186 433 185 437 183 439C180 441 177 442 173 443C170 444 166 445 163 444C159 443 155 441 153 439C150 437 149 433 148 430C146 427 145 423 145 420C145 417 146 413 147 410C149 407 150 403 153 401C155 399 159 399 163 398C166 397 170 394 174 395C177 395 180 399 183 402C185 404 189 406 190 409C192 412 191 418 191 420Z"/>
  <path fill="#f9d71c" stroke="none" fill-rule="evenodd" transform="translate(-6 7)" d="M399 420C398 424 398 436 395 443C391 449 386 456 380 461C374 466 366 470 358 471C350 473 341 473 334 471C326 469 319 464 313 460C307 455 301 449 297 442C294 436 291 427 292 420C293 413 298 406 301 399C304 392 306 384 312 379C317 374 326 371 334 370C342 368 351 368 358 370C365 371 372 376 378 381C384 386 390 391 394 398C398 404 399 416 400 420ZM371 420C371 422 370 427 368 431C366 434 364 436 361 439C358 441 355 443 351 443C348 444 344 442 341 442C338 441 333 441 331 439C328 437 326 434 324 430C323 427 322 423 322 420C322 417 324 413 326 410C327 407 329 404 331 402C334 400 338 398 341 397C344 397 348 395 351 396C355 397 358 399 361 401C364 403 367 406 369 409C370 412 369 418 370 420Z"/>
  <path stroke="#fafaf8" stroke-width="18" d="M24 122C150 112 350 120 488 114L494 332C360 338 160 330 20 336Z"/>
  <path stroke="#fafaf8" stroke-width="7" opacity=".7" d="M19 125C154 113 347 121 493 112L492 333C356 342 160 332 16 332Z"/>
  <path stroke="#fafaf8" stroke-width="8" opacity=".75" d="M60 154C160 148 340 152 460 148L462 296C340 300 170 296 56 300Z"/>
  <path stroke="#fafaf8" stroke-width="12" d="M80 218L104 216M128 220L150 218"/>
  <path stroke="#fafaf8" stroke-width="19" d="M402 18C424 20 446 40 440 66L246 332L204 314L378 36C384 24 392 18 402 18Z"/>
  <path stroke="#fafaf8" stroke-width="7" opacity=".7" d="M397 22C425 16 448 43 435 70L250 333L203 313L376 39C381 26 395 15 401 18Z"/>
  <path stroke="#fafaf8" stroke-width="19" d="M112 22C90 26 74 46 82 70L268 332L310 314L142 38C134 26 124 20 112 22Z"/>
  <path stroke="#fafaf8" stroke-width="7" opacity=".7" d="M107 17C89 26 72 41 78 71L269 332L313 318L138 41C131 23 123 17 115 22Z"/>
  <path stroke="#fafaf8" stroke-width="19" d="M220 420C219 424 217 435 214 441C210 447 204 452 199 457C193 462 187 469 180 471C173 473 164 470 157 468C149 466 141 464 135 459C130 455 125 448 121 442C118 435 116 427 116 420C116 413 119 405 122 399C126 393 131 387 137 382C142 377 149 372 156 370C163 369 172 371 179 373C186 375 194 377 200 381C206 386 212 392 215 398C219 405 221 416 222 420Z"/>
  <path stroke="#fafaf8" stroke-width="7" opacity=".7" d="M216 417C216 420 219 433 211 439C208 446 202 452 203 460C191 464 184 466 178 472C169 473 161 469 155 469C147 468 145 467 138 457C128 452 126 451 118 439C120 437 119 428 115 417C117 415 116 403 122 399C125 393 133 388 138 386C143 377 152 372 158 367C162 370 173 374 178 370C188 377 190 375 201 384C208 383 213 390 213 398C222 401 220 416 225 417Z"/>
  <path stroke="#fafaf8" stroke-width="15" d="M192 420C192 422 190 427 188 430C186 433 185 437 183 439C180 441 177 442 173 443C170 444 166 445 163 444C159 443 155 441 153 439C150 437 149 433 148 430C146 427 145 423 145 420C145 417 146 413 147 410C149 407 150 403 153 401C155 399 159 399 163 398C166 397 170 394 174 395C177 395 180 399 183 402C185 404 189 406 190 409C192 412 191 418 191 420Z"/>
  <path stroke="#fafaf8" stroke-width="7" opacity=".7" d="M189 419C194 422 189 427 186 433C189 432 186 440 185 441C179 439 179 440 174 444C170 442 167 444 161 442C158 442 154 441 155 436C150 435 148 431 150 432C148 425 143 423 142 422C144 419 148 411 149 412C147 410 153 405 156 399C153 399 160 399 164 399C168 400 171 393 175 394C178 397 180 400 186 404C183 405 189 405 187 408C193 410 190 416 192 421Z"/>
  <path stroke="#fafaf8" stroke-width="19" d="M399 420C398 424 398 436 395 443C391 449 386 456 380 461C374 466 366 470 358 471C350 473 341 473 334 471C326 469 319 464 313 460C307 455 301 449 297 442C294 436 291 427 292 420C293 413 298 406 301 399C304 392 306 384 312 379C317 374 326 371 334 370C342 368 351 368 358 370C365 371 372 376 378 381C384 386 390 391 394 398C398 404 399 416 400 420Z"/>
  <path stroke="#fafaf8" stroke-width="7" opacity=".7" d="M395 419C399 427 401 438 393 444C392 447 390 456 381 464C373 468 366 468 362 473C353 476 340 471 330 473C325 465 322 462 314 463C310 453 298 449 297 443C296 436 290 427 294 421C297 416 297 402 298 398C307 391 303 381 311 378C318 373 327 372 334 367C341 366 352 371 361 369C366 374 368 380 376 383C386 383 390 389 396 394C398 402 398 419 401 419Z"/>
  <path stroke="#fafaf8" stroke-width="15" d="M371 420C371 422 370 427 368 431C366 434 364 436 361 439C358 441 355 443 351 443C348 444 344 442 341 442C338 441 333 441 331 439C328 437 326 434 324 430C323 427 322 423 322 420C322 417 324 413 326 410C327 407 329 404 331 402C334 400 338 398 341 397C344 397 348 395 351 396C355 397 358 399 361 401C364 403 367 406 369 409C370 412 369 418 370 420Z"/>
  <path stroke="#fafaf8" stroke-width="7" opacity=".7" d="M368 420C370 421 369 429 367 430C365 432 363 433 361 442C358 440 353 441 350 445C347 444 346 440 343 440C338 442 331 444 331 439C326 436 328 436 321 430C325 429 323 423 322 419C323 420 321 415 325 412C328 409 329 404 332 402C332 398 338 399 341 398C347 398 349 394 349 396C356 400 358 398 361 402C363 403 366 405 369 411C369 411 369 419 370 423Z"/>
  <path stroke="#fafaf8" stroke-width="16" d="M212 322L192 372M300 322L324 372"/>
  <path stroke="#fafaf8" stroke-width="6" opacity=".7" d="M222 326L204 366M294 328L316 368"/>
  <g stroke="#fafaf8" stroke-width="6" opacity="0.6">
    <path d="M60 322L96 296"/>
    <path d="M84 326L126 296"/>
    <path d="M440 140L470 118"/>
    <path d="M430 176L476 142"/>
    <path d="M410 250L460 214"/>
  </g>
</svg>
