<svg height="512pt" viewBox="0 0 512 512.00094" width="512pt" xmlns="http://www.w3.org/2000/svg" id="fi_1700540"><path d="m437 142.21875v227.5625l-181 86.21875-181-86.21875v-227.5625l181-86.21875zm0 0" fill="#ffd54f"></path><path d="m229.261719 68.738281 177.796875 87.742188 29.941406-14.261719-181-86.21875zm0 0" fill="#ffca28"></path><path d="m256 228.4375v227.5625l-181-86.21875v-227.5625zm0 0" fill="#ff50b5"></path><path d="m256 228.4375v227.5625l181-86.21875v-227.5625zm0 0" fill="#af7fdf"></path><path d="m407.058594 156.480469v227.5625l29.941406-14.261719v-227.5625zm0 0" fill="#9f66d8"></path><path d="m501.285156 331.289062-56.785156 26.949219v-210.957031l63.214844-30.003906c3.742187-1.773438 5.335937-6.246094 3.558594-9.988282-1.773438-3.742187-6.25-5.339843-9.988282-3.5625l-63.941406 30.347657-34.664062-16.511719c-3.738282-1.777344-8.214844-.195312-9.996094 3.546875-1.78125 3.738281-.191406 8.214844 3.546875 9.996094l23.328125 11.113281-156.058594 74.339844v-148.679688l103.695312 49.394532c3.734376 1.777343 8.214844.195312 9.996094-3.542969 1.78125-3.742188.191406-8.214844-3.546875-10l-110.144531-52.464844v-43.765625c0-4.144531-3.355469-7.5-7.5-7.5-4.140625 0-7.5 3.355469-7.5 7.5v43.765625l-176.722656 84.179687c-1.605469.765626-2.839844 2.042969-3.554688 3.570313-.492187 1.035156-.746094 2.195313-.71875 3.375v17.6875c0 4.140625 3.355469 7.5 7.5 7.5 4.140625 0 7.5-3.359375 7.5-7.5v-5.980469l156.03125 74.328125-156.035156 74.050781v-110.09375c0-4.140624-3.355469-7.5-7.5-7.5-4.140625 0-7.5 3.359376-7.5 7.5v117.210938l-63.214844 30.003906c-3.742187 1.773438-5.335937 6.246094-3.558594 9.988282 1.789063 3.769531 6.273438 5.324218 9.992188 3.5625l56.78125-26.949219v43.582031c0 2.890625 1.664062 5.527344 4.277344 6.769531l166.757812 79.433594-87.945312 41.738281c-3.742188 1.773438-5.335938 6.25-3.558594 9.992188 1.769531 3.734375 6.242188 5.339844 9.992188 3.558594l91.476562-43.414063v36.640625c0 4.140625 3.355469 7.5 7.5 7.5 4.140625 0 7.5-3.359375 7.5-7.5v-43.761719l244.214844-115.898437c3.742187-1.773438 5.335937-6.25 3.558594-9.992188-1.773438-3.742187-6.25-5.335937-9.988282-3.558594zm-252.785156-114.730468-156.058594-74.339844 156.058594-74.339844zm-166 102.519531 166-78.78125v163.574219c0 4.140625 3.359375 7.5 7.5 7.5 4.144531 0 7.5-3.359375 7.5-7.5v-170.691406l166-78.78125v210.648437l-166 79.070313v-8.347657c0-4.144531-3.355469-7.5-7.5-7.5-4.140625 0-7.5 3.355469-7.5 7.5v8.347657l-166-79.070313zm0 0"></path></svg>