<svg id="fi_11262030" enable-background="new 0 0 512 512" viewBox="0 0 512 512" xmlns="http://www.w3.org/2000/svg"><g><g><path d="m405.734 490.442c11.139-7.219 18.516-19.751 18.516-34.014 0-20.724-15.563-37.801-35.637-40.211 2.46-5.228 3.842-11.065 3.842-17.226 0-22.375-18.139-40.514-40.514-40.514-21.864 0-39.672 17.322-40.475 38.989-.184-.002-.366-.014-.551-.014-22.375 0-40.514 18.139-40.514 40.513 0 1.295.067 2.574.186 3.839-4.931-2.136-10.368-3.326-16.084-3.326-22.375 0-40.513 18.138-40.513 40.513 0 3.978.58 7.818 1.65 11.449h190.094z" fill="#e5e1e5"></path><path d="m405.734 490.442c11.139-7.219 18.516-19.751 18.516-34.014 0-20.724-15.563-37.801-35.637-40.211 2.46-5.228 3.842-11.065 3.842-17.226 0-22.375-18.139-40.513-40.513-40.513-5.42 0-10.589 1.067-15.314 2.998 10.828 11.164 17.526 26.352 17.526 43.037v10.856c0 28.086-22.979 51.065-51.065 51.065h-87.104c-1.289 3.955-1.995 8.174-1.995 12.559 0 3.978.58 7.818 1.65 11.449z" fill="#d7d0d6"></path><g><circle cx="369.045" cy="296.426" fill="#e5e1e5" r="23.077"></circle></g><g><circle cx="30.577" cy="435.916" fill="#e5e1e5" r="17.949"></circle></g><g><g><path d="m74.11 401.566 28.545-7.649-7.649 28.545 67.98 67.98h14.297l7.75-28.923c10.18-37.993 36.676-69.144 71.87-86.709 7.928-3.957 15.359-9.254 21.954-15.893 25.89-26.061 31.016-65.516 15.146-96.854l-36.563-36.564c-31.388-15.968-70.747-10.85-96.997 15.401-6.782 6.782-12.152 14.439-16.113 22.607-17.205 35.484-49.659 61.202-87.751 71.409l-30.158 8.081c-3.813 1.022-5.09 5.788-2.299 8.58z" fill="#c96e59"></path><path d="m294.002 262.063-17.421-17.421c5.467 27.855-2.502 57.882-23.795 79.317-6.953 6.999-14.787 12.584-23.146 16.756-24.771 12.364-45.446 31.117-59.653 54.133 1.065 2.102 1.13 4.669-.058 6.909-4.395 8.279-7.857 17.087-10.294 26.179l-11.381 42.473c-.354 1.32-1.046 2.453-1.948 3.354l16.68 16.68h14.297l7.75-28.923c10.18-37.993 36.676-69.144 71.87-86.709 7.928-3.957 15.359-9.254 21.954-15.893 25.889-26.062 31.015-65.518 15.145-96.855z" fill="#bb5d4c"></path><path d="m261.887 229.947c-12.1-1.384-24.466-.347-36.441 3.222-3.97 1.183-6.229 5.359-5.046 9.329 1.182 3.969 5.361 6.229 9.329 5.046 17.834-5.313 36.703-3.968 53.486 3.732z" fill="#d78878"></path></g><g><path d="m509.602 27.666-17.71-17.71c-3.198-3.198-8.382-3.198-11.58 0l-181.48 181.48 29.29 29.29 181.479-181.48c3.198-3.198 3.198-8.382.001-11.58z" fill="#ffd15b"></path></g><g><path d="m502.224 20.288-160.781 160.781c-3.964 3.964-10.391 3.964-14.355 0l-8.945-8.944-19.311 19.311 29.29 29.29 181.48-181.48c3.198-3.198 3.198-8.382 0-11.58z" fill="#ffc344"></path></g><g><path d="m297.665 267.16-45.267-45.267c-3.997-3.997-3.997-10.478 0-14.475l24.688-24.688c3.997-3.997 10.478-3.997 14.475 0l45.267 45.267c3.997 3.997 3.997 10.478 0 14.475l-24.688 24.688c-3.997 3.997-10.478 3.997-14.475 0z" fill="#ffe177"></path></g><g><path d="m328.048 219.216-15.908 15.908c-3.997 3.997-10.478 3.997-14.475 0l-36.487-36.487-8.78 8.78c-3.997 3.997-3.997 10.478 0 14.475l45.267 45.267c3.997 3.997 10.478 3.997 14.475 0l24.688-24.688c3.997-3.997 3.997-10.478 0-14.475z" fill="#ffd15b"></path></g></g><g><circle cx="452.706" cy="375.57" fill="#e5e1e5" r="17.949"></circle></g></g><g><g><path d="m213.435 184.977c-4.143 0-7.5-3.358-7.5-7.5s3.357-7.5 7.5-7.5c18.204 0 33.014-14.81 33.014-33.014 0-17.851-13.968-32.337-31.8-32.98-2.007-.072-3.9-.947-5.258-2.427-1.357-1.48-2.063-3.443-1.962-5.449.028-.566.044-1.135.044-1.708 0-17.921-14.579-32.501-32.5-32.501s-32.501 14.58-32.501 32.501c0 6.701 2.03 13.14 5.872 18.621 1.34 1.912 1.713 4.338 1.01 6.564s-2.402 3.998-4.598 4.792c-13.022 4.716-21.771 17.194-21.771 31.049 0 4.142-3.357 7.5-7.5 7.5s-7.5-3.358-7.5-7.5c0-17.179 9.252-32.903 23.719-41.416-2.784-6.12-4.231-12.773-4.231-19.611 0-26.192 21.309-47.501 47.501-47.501 24.627 0 44.937 18.839 47.275 42.862 22.475 4.117 39.2 23.646 39.2 47.203-.001 26.476-21.54 48.015-48.014 48.015z" fill="#e5e1e5"></path></g><g><path d="m35.828 297.11c-1.919 0-3.839-.732-5.304-2.197-8.972-8.972-13.912-20.9-13.912-33.588s4.94-24.616 13.912-33.588 20.9-13.913 33.589-13.913c11.129 0 21.674 3.802 30.151 10.791 8.69-5.994 19.061-8.915 29.822-8.324 4.137.229 7.304 3.768 7.074 7.903-.229 4.136-3.754 7.312-7.903 7.074-9.051-.497-17.689 2.616-24.313 8.779-1.471 1.368-3.415 2.093-5.437 2.001-2.007-.088-3.895-.977-5.24-2.469-.379-.419-.77-.832-1.174-1.236-6.138-6.139-14.3-9.52-22.98-9.52-8.682 0-16.844 3.381-22.981 9.52-12.673 12.672-12.673 33.291 0 45.963 2.929 2.929 2.929 7.678 0 10.606-1.465 1.465-3.385 2.198-5.304 2.198z" fill="#e5e1e5"></path></g><g><g><path d="m298.5 453.25c-4.143 0-7.5-3.358-7.5-7.5 0-16.86 13.717-30.577 30.577-30.577 4.143 0 7.5 3.358 7.5 7.5s-3.357 7.5-7.5 7.5c-8.589 0-15.577 6.988-15.577 15.577 0 4.142-3.357 7.5-7.5 7.5z" fill="#efedef"></path></g></g><path d="m166.819 391.615c-3.658-1.942-8.198-.549-10.141 3.109-4.924 9.278-8.804 19.146-11.532 29.329l-10.26 38.29 11.419 11.419c.902-.901 1.595-2.034 1.948-3.354l11.381-42.473c2.437-9.092 5.899-17.899 10.294-26.179 1.942-3.658.551-8.199-3.109-10.141z" fill="#d78878"></path><path d="m50.183 377.639 38.419-10.294c12.382-3.318 24.234-8.395 35.228-15.088 3.538-2.154 4.66-6.768 2.506-10.306-2.155-3.539-6.77-4.659-10.307-2.505-9.773 5.951-20.308 10.463-31.31 13.411l-42.602 11.415c-1.32.354-2.458 1.043-3.358 1.945z" fill="#d78878"></path><g><path d="m141.342 337.048c-2 0-3.995-.794-5.472-2.368-2.834-3.021-2.683-7.767.338-10.601 11.38-10.679 20.663-23.337 27.592-37.625 1.807-3.727 6.291-5.283 10.021-3.476 3.727 1.807 5.283 6.294 3.476 10.021-7.73 15.943-18.102 30.081-30.824 42.019-1.449 1.357-3.292 2.03-5.131 2.03z" fill="#d78878"></path></g><g><path d="m442.379 504.442h-434.879c-4.143 0-7.5-3.358-7.5-7.5s3.357-7.5 7.5-7.5h434.879c4.143 0 7.5 3.358 7.5 7.5s-3.358 7.5-7.5 7.5z" fill="#e5e1e5"></path></g></g></g><g></g><g></g><g></g><g></g><g></g><g></g><g></g><g></g><g></g><g></g><g></g><g></g><g></g><g></g><g></g></svg>