<svg id="fi_17489532" enable-background="new 0 0 64 64" viewBox="0 0 64 64" xmlns="http://www.w3.org/2000/svg"><g><path d="m62.75 32.08v6.61c0 .83-.67 1.49-1.5 1.49h-52.23c-.11 0-.22-.01-.33-.04l-7.52-1.67c-.68-.15-1.17-.76-1.17-1.46v-15.8c0-.82.67-1.49 1.5-1.49h57.39c.7 0 1.31.49 1.46 1.18l.12.52 2.13 9.79.12.55c.02.11.03.21.03.32z" fill="#fdc77c"></path><path d="m60.13 20.38c-.27-.4-.73-.66-1.24-.66h-57.39c-.52 0-.97.26-1.24.66z" fill="#fbd984"></path><path d="m62.75 32.08v3.7h-62.75v-4.56h62.6l.12.55c.02.1.03.2.03.31z" fill="#e39a61"></path><g><path d="m19.65 40.29c.03-.24.06-.47.06-.72 0-2.9-2.35-5.25-5.25-5.25s-5.25 2.35-5.25 5.25c0 .24.02.48.06.72z" fill="#243944"></path><circle cx="14.46" cy="39.57" fill="#445c6c" r="4.7"></circle><path d="m14.46 35.14c2.55 0 4.63 2.03 4.7 4.57 0-.05.01-.09.01-.13 0-2.6-2.11-4.7-4.7-4.7s-4.7 2.11-4.7 4.7c0 .05.01.09.01.13.06-2.54 2.13-4.57 4.68-4.57z" fill="#576f7c"></path><path d="m17.17 39.57c0 1.5-1.21 2.71-2.71 2.71s-2.71-1.21-2.71-2.71 1.21-2.71 2.71-2.71 2.71 1.22 2.71 2.71z" fill="#eff3f5"></path><g fill="#dbdfe0"><path d="m15.15 39.57c0 .38-.31.68-.68.68-.38 0-.68-.31-.68-.68 0-.38.31-.68.68-.68s.68.3.68.68z"></path><g><path d="m15.25 37.96c0 .27-.35.49-.79.49s-.79-.22-.79-.49.35-.49.79-.49.79.22.79.49z"></path><path d="m15.25 41.19c0 .27-.35.49-.79.49s-.79-.22-.79-.49.35-.49.79-.49.79.22.79.49z"></path></g><g><path d="m16.08 40.36c-.27 0-.49-.35-.49-.79s.22-.79.49-.79.49.35.49.79c-.01.44-.22.79-.49.79z"></path><path d="m12.85 40.36c-.27 0-.49-.35-.49-.79s.22-.79.49-.79.49.35.49.79c-.01.44-.23.79-.49.79z"></path></g></g></g><g><path d="m54.6 40.29c.03-.24.06-.47.06-.72 0-2.9-2.35-5.25-5.25-5.25s-5.25 2.35-5.25 5.25c0 .24.02.48.06.72z" fill="#243944"></path><circle cx="49.41" cy="39.57" fill="#445c6c" r="4.7"></circle><path d="m49.41 35.14c2.55 0 4.63 2.03 4.7 4.57 0-.05.01-.09.01-.13 0-2.6-2.11-4.7-4.7-4.7-2.6 0-4.7 2.11-4.7 4.7 0 .05.01.09.01.13.06-2.54 2.13-4.57 4.68-4.57z" fill="#576f7c"></path><path d="m52.12 39.57c0 1.5-1.21 2.71-2.71 2.71s-2.71-1.21-2.71-2.71 1.21-2.71 2.71-2.71 2.71 1.22 2.71 2.71z" fill="#eff3f5"></path><g fill="#dbdfe0"><path d="m50.1 39.57c0 .38-.31.68-.68.68-.38 0-.68-.31-.68-.68 0-.38.31-.68.68-.68s.68.3.68.68z"></path><g><ellipse cx="49.41" cy="37.96" rx=".79" ry=".49"></ellipse><ellipse cx="49.41" cy="41.19" rx=".79" ry=".49"></ellipse></g><g><path d="m51.03 40.36c-.27 0-.49-.35-.49-.79s.22-.79.49-.79.49.35.49.79c-.01.44-.22.79-.49.79z"></path><path d="m47.8 40.36c-.27 0-.49-.35-.49-.79s.22-.79.49-.79.49.35.49.79c-.01.44-.22.79-.49.79z"></path></g></g></g><g fill="#445c6c"><path d="m11.7 21.42h-7.18c-.63 0-1.15.51-1.15 1.15v4.95c0 .63.51 1.15 1.15 1.15h7.18c.63 0 1.15-.51 1.15-1.15v-4.95c0-.64-.52-1.15-1.15-1.15z"></path><path d="m21.9 21.42h-7.18c-.63 0-1.15.51-1.15 1.15v4.95c0 .63.51 1.15 1.15 1.15h7.18c.63 0 1.15-.51 1.15-1.15v-4.95c-.01-.64-.52-1.15-1.15-1.15z"></path><path d="m32.09 21.42h-7.18c-.63 0-1.15.51-1.15 1.15v4.95c0 .63.51 1.15 1.15 1.15h7.18c.63 0 1.15-.51 1.15-1.15v-4.95c0-.64-.52-1.15-1.15-1.15z"></path><path d="m42.29 21.42h-7.18c-.63 0-1.15.51-1.15 1.15v4.95c0 .63.51 1.15 1.15 1.15h7.18c.63 0 1.15-.51 1.15-1.15v-4.95c-.01-.64-.52-1.15-1.15-1.15z"></path><path d="m52.48 21.42h-7.18c-.63 0-1.15.51-1.15 1.15v4.95c0 .63.51 1.15 1.15 1.15h7.18c.63 0 1.15-.51 1.15-1.15v-4.95c0-.64-.51-1.15-1.15-1.15z"></path><path d="m58.11 21.42h-2.84c-.33 0-.61.27-.61.61v6.54c0 .19.09.38.25.49l2.84 2.04c.4.29.96 0 .96-.49v-8.58c0-.34-.27-.61-.6-.61z"></path><path d="m62.71 31.76-2.25-10.34c-.5.06-.89.47-.89.99v7.83c0 1.43 1.16 2.59 2.59 2.59h.58v-.76c.01-.1 0-.2-.03-.31z"></path></g><g fill="#243944"><path d="m12.85 22.66v-.09c0-.63-.51-1.15-1.15-1.15h-7.18c-.63 0-1.15.51-1.15 1.15v.09z"></path><path d="m23.04 22.66v-.09c0-.63-.51-1.15-1.15-1.15h-7.18c-.63 0-1.15.51-1.15 1.15v.09z"></path><path d="m33.24 22.66v-.09c0-.63-.51-1.15-1.15-1.15h-7.18c-.63 0-1.15.51-1.15 1.15v.09z"></path><path d="m43.43 22.66v-.09c0-.63-.51-1.15-1.15-1.15h-7.18c-.63 0-1.15.51-1.15 1.15v.09z"></path><path d="m53.63 22.66v-.09c0-.63-.51-1.15-1.15-1.15h-7.18c-.63 0-1.15.51-1.15 1.15v.09z"></path><path d="m58.71 22.66v-.63c0-.33-.27-.61-.61-.61h-2.84c-.33 0-.61.27-.61.61v.63z"></path></g><path d="m63.43 36.56h-4v3.8h4c.25 0 .46-.2.46-.46v-2.89c-.01-.24-.21-.45-.46-.45z" fill="#445c6c"></path><path d="m63.52 21.18c-.35-.63-3.7-.67-4.96-.66-.26 0-.47.22-.46.48.01.24.2.43.43.45l3.86.25.36 4.83h.77c.82-.91.43-4.57 0-5.35z" fill="#445c6c"></path><path d="m.03 33.69h-.03v2.74h.03c.46 0 .84-.61.84-1.37 0-.75-.38-1.37-.84-1.37z" fill="#eff3f5"></path><path d="m61.22 34h-.74c-.24 0-.43.19-.43.43s.19.43.43.43h.74c.24 0 .43-.19.43-.43s-.19-.43-.43-.43z" fill="#eff3f5"></path><path d="m37.8 37.31h-.74c-.24 0-.43.15-.43.33s.19.33.43.33h.74c.24 0 .43-.15.43-.33s-.19-.33-.43-.33z" fill="#eff3f5"></path><path d="m27.73 37.31h-.74c-.24 0-.43.15-.43.33s.19.33.43.33h.74c.24 0 .43-.15.43-.33s-.19-.33-.43-.33z" fill="#eff3f5"></path><path d="m22.38 35.78h.15v4.4h-.15z" fill="#e39a61"></path><g fill="#e39a61"><path d="m32.19 35.78h.15v4.4h-.15z"></path><path d="m42.53 35.78h.15v4.4h-.15z"></path></g></g></svg>