<svg id="fi_2762610" enable-background="new 0 0 496 496" height="512" viewBox="0 0 496 496" width="512" xmlns="http://www.w3.org/2000/svg"><g><g id="XMLID_188_"><g><path d="m311.42 327.004 21.09 38.47-41.29 27.55-22.32-39.34-73.04-116.41-114.48-183.9c-1.96-5.01-2.9-10.25-2.9-15.44 0-14.19 7.07-28.07 19.98-36.17 3.53-2.21 8.19-1.14 10.41 2.39l30.88 49.22 84.79 135.14z" fill="#f3eae6"></path></g></g></g><g><g><g id="XMLID_32_"><g><path d="m496 62.364v231.3c0 4.97-4.03 9-8.99 9h-145.888c-1.563 0-3.009-.827-3.801-2.174l-16.368-27.828-56.736-141.399c-1.29-2.2-30.583-2.2-31.873 0l-57.319 141.435-16.516 28.08c-.687 1.169-1.942 1.886-3.298 1.886h-146.221c-4.96 0-8.99-4.03-8.99-9v-231.3c0-4.965 4.025-8.99 8.99-8.99h478.02c4.965 0 8.99 4.025 8.99 8.99z" fill="#80d261"></path></g></g></g><g><path d="m112.462 293.664v-231.3c0-4.97 4.03-8.99 8.99-8.99h-112.462c-4.96 0-8.99 4.02-8.99 8.99v231.3c0 4.97 4.03 9 8.99 9h112.463c-4.961 0-8.991-4.03-8.991-9z" fill="#68ca44"></path></g><path d="m429.01 73.85c4.069-6.486 6.88-13.406 8.535-20.476h-113.976l-67.92 108.257 57.235 97.311z" fill="#68ca44"></path><g><g id="XMLID_187_"><g><path d="m213.189 170.423-36.329 36.329 19 30.522 14.969 23.858 28.679-48.758-14.968-23.86z" fill="#efe2dd"></path><path d="m464 113.374v129.29c-16.57 0-30 13.43-30 30h-113.05l-22.348-37.999-34.385-107.485c-1.29-2.2-32.783-3.134-34.073-.934l-35.349 112.835-19.773 33.615-1.973-.032h-111.049c0-16.57-13.43-30-30-30v-129.29c16.57 0 30-13.44 30-30h372c0 16.56 13.43 30 30 30z" fill="#ade194"></path><path d="m62 83.374c0 16.56-13.43 30-30 30v129.29c16.57 0 30 13.43 30 30h50.462v-189.29z" fill="#97da7b"></path></g></g></g><path d="m304.747 83.374-49.099 78.257 57.236 97.311 110.151-175.568z" fill="#97da7b"></path><g id="XMLID_189_"><g><path d="m328.94 163.672-36.25 57.983-22.76-35.74-19.05-32.39c-1.29-2.2-4.47-2.2-5.76 0l-50.32 85.56c-13.06-13.46-21.09-31.81-21.09-52.04 0-41.31 33.48-74.79 74.79-74.79 20.65 0 39.35 8.37 52.88 21.9z" fill="#fee45a"></path></g></g><path d="m301.38 134.154c-5.705-5.705-12.339-10.479-19.641-14.108l-26.091 41.585 14.294 24.302 22.748 35.721 36.25-57.983z" fill="#fedf30"></path><path d="m394.372 1.768c-3.532-2.216-8.191-1.149-10.407 2.383l-202.558 322.853-13.826 18.578 43.138 26.448 13.211-18.346 183.903-293.12c12.519-19.953 6.492-46.277-13.461-58.796z" fill="#f9f3f1"></path><g id="XMLID_339_"><g><path d="m403.3 384.734c21.21 33.8 11 78.39-22.8 99.6-33.8 21.2-78.39 10.99-99.6-22.81-13.88-22.13-14.29-48.9-3.43-70.69l-10.87-17.32c-4.57-7.29-2.37-16.9 4.92-21.48l37.28-23.39c7.29-4.57 16.91-2.37 21.48 4.92l10.87 17.32c24.35-.3 48.27 11.71 62.15 33.85zm-23.91 46.93c2.28-9.96.54-20.21-4.89-28.86-7.04-11.23-19.18-17.93-32.46-17.93-7.15 0-14.15 2.03-20.26 5.86-17.87 11.21-23.28 34.86-12.07 52.72 7.04 11.23 19.18 17.93 32.46 17.93 7.15 0 14.15-2.02 20.26-5.85 8.66-5.43 14.68-13.91 16.96-23.87z" fill="#fe646f"></path></g></g><g><path d="m245.416 281.115c-4.142 0-7.5-3.358-7.5-7.5v-4.992c0-4.142 3.358-7.5 7.5-7.5s7.5 3.358 7.5 7.5v4.992c0 4.142-3.358 7.5-7.5 7.5z" fill="#f3eae6"></path></g></g><g id="XMLID_337_"><g><path d="m221.31 352.034c7.29 4.58 9.49 14.19 4.92 21.48l-10.117 16.12c-.469.747-.511 1.677-.133 2.474 10.219 21.553 9.561 47.715-4.05 69.416-21.21 33.8-65.8 44.01-99.6 22.81-33.8-21.21-44.01-65.8-22.8-99.6 13.89-22.14 37.8-34.15 62.15-33.85l10.87-17.32c4.57-7.29 14.19-9.49 21.48-4.92zm-38.18 91.42c11.2-17.86 5.79-41.51-12.08-52.72-6.1-3.83-13.11-5.86-20.25-5.86-13.29 0-25.43 6.7-32.47 17.93-5.43 8.65-7.17 18.9-4.89 28.86s8.31 18.44 16.96 23.87c6.11 3.83 13.11 5.85 20.26 5.85 13.28 0 25.42-6.7 32.47-17.93z" fill="#fe646f"></path></g></g></svg>