<svg id="Capa_1" enable-background="new 0 0 512 512" height="512" viewBox="0 0 512 512" width="512" xmlns="http://www.w3.org/2000/svg"><g id="Clock"><g><circle cx="142.863" cy="369.137" r="20"/></g><g><path d="m256 0c-143.551 0-256 112.449-256 256s112.449 256 256 256 256-112.449 256-256-112.449-256-256-256zm0 472c-121.122 0-216-94.878-216-216s94.878-216 216-216 216 94.878 216 216-94.878 216-216 216z"/><path d="m256 156c-11.046 0-20 8.954-20 20v71.716l-34.142 34.142c-7.811 7.811-7.811 20.474 0 28.284 7.811 7.811 20.474 7.811 28.284 0l39.997-39.998c3.827-3.824 5.86-9.077 5.86-14.145v-80c.001-11.045-8.953-19.999-19.999-19.999z"/><circle cx="256" cy="96" r="20"/><circle cx="256" cy="416" r="20"/><circle cx="369.137" cy="142.863" r="20"/><circle cx="416" cy="256" r="20"/><circle cx="96" cy="256" r="20"/><circle cx="369.137" cy="369.137" r="20"/><circle cx="142.863" cy="142.863" r="20"/></g></g></svg>