<svg id="fi_4441526" enable-background="new 0 0 504.5 504.5" height="512" viewBox="0 0 504.5 504.5" width="512" xmlns="http://www.w3.org/2000/svg"><g><path d="m181.38 60.405c-5.276-1.482-10.595-2.868-15.848-4.096-12.672-2.964-25.347 4.907-28.311 17.579-.831 3.555-.809 7.11-.069 10.45l17.648 17.861c-12.672-2.964-25.347 4.907-28.311 17.579-.54 2.311-.717 4.621-.573 6.873 4.026 9.007 22.221 17.701 44.199 28.536-12.32-4.193-25.707 2.395-29.9 14.715-.765 2.247-1.167 4.529-1.245 6.784 5.715 20.714 41.629 14.728 109.022 61.843 45.087 31.521 195.298-7.785 195.298-7.785 11.241-17.763 13.435-34.737 10.721-55.582l-1.717-13.193c-2.478-19.031.746-38.37 9.263-55.569l17.609-35.56c9.521-19.228-1.436-28.198-1.436-28.198-18.971-9.394-44.455 16.708-60.403 48.913-9.645 19.477-22.416 53.274-22.416 53.274s-34.472-38.7-68.301-60.011c-21.202-13.356-69.404-37.478-116.326-48.451-12.672-2.964-25.347 4.907-28.311 17.579-.508 2.17-.69 4.338-.593 6.459z" fill="#ebae9d"></path><path d="m154.8 102.199c45.71 10.69 81.56 27.906 107.605 46.095 3.396 2.372 8.072 1.541 10.443-1.855 2.372-3.396 1.541-8.072-1.855-10.443-33.603-23.467-73.617-39.912-125.532-49.791-2.768-.527-5.558-1.135-8.309-1.867 1.899 8.569 8.53 15.729 17.648 17.861z" fill="#e09380"></path><path d="m271.557 199.766c2.543-3.269 1.955-7.981-1.314-10.525-32.349-25.168-71.89-42.947-123.347-54.981-7.258-1.697-14.656-3.952-20.98-7.609.644 10.098 7.791 19.014 18.152 21.438 51.458 12.034 90.42 32.339 116.964 52.991 3.269 2.544 7.982 1.955 10.525-1.314z" fill="#e09380"></path><path d="m477.728 42.643s2.793 7.284-4.557 22.126l-20.616 41.632c-8.517 17.199-11.74 36.537-9.263 55.569l1.717 13.193c2.714 20.845.519 37.819-10.721 55.582l-32.175-23.23c-15.209-11.705-26.604-27.659-32.743-45.843l-4.398-13.026c-6.021-17.832-16.128-26.934-29.004-22.587-2.527.853-5.681 1.904-5.681 1.904s-2.888-3.252-4.561-4.554c-32.349-25.168-71.89-42.947-123.347-54.981-10.125-2.368-20.362-7.689-21-8.023.472 10.268 7.669 19.396 18.172 21.852 50.79 11.878 89.397 31.814 115.915 52.187-8.578 5.728-12.336 15.145-5.289 36.02 6.952 20.592 16.558 49.343 16.558 49.343s-24.315 11.774-74.86 12.846c-25.313-18.527-55.614-33.687-92.775-46.336-7.056-2.402-14.197-5.372-20.132-9.632-.351 10.112 5.887 19.687 15.96 23.116 50.028 17.028 86.809 41.06 111.197 64.218 2.969 2.819 153.628 41.551 153.628 41.551l32.061-50.664c11.241-17.763 15.909-38.9 13.195-59.745l-4.57-35.102c-2.477-19.031.746-38.37 9.263-55.569l12.562-25.369c8.354-16.865 7.643-30.448-4.536-36.478z" fill="#e09380"></path><path d="m500.371 367.864-49.477-24.891s-15.031-65.492-46.07-110.072l-28.052-21.589c-15.209-11.705-26.604-27.659-32.744-45.843l-9.056-26.822c-6.021-17.832-16.128-26.934-29.004-22.587-20.057 6.772-19.62 43.249-8.124 77.298 6.952 20.592 28.891 46.45 28.891 46.45s-26.664 12.933-82.245 12.933c-33.516 0-76.555-7.844-124.361-29.771-10.856-4.979-23.963-1.487-30.301 8.637-1.801 2.877-2.882 5.945-3.349 9.032 1.954 13.478 13.446 24.914 13.446 24.914-11.822-5.442-25.817-.271-31.259 11.551-.692 1.503-1.21 3.041-1.567 4.592 0 0 2.569 17.046 25.105 24.92-5.119 2.23-9.469 6.276-11.987 11.746-.737 1.601-1.273 3.242-1.63 4.897 0 0 1.333 18.133 34.916 35.535-2.158 2.823-3.575 5.979-4.291 9.235 0 0 54.554 62.646 181.853 62.646 45.826 0 96.372-6.148 96.372-6.148l117.063 50.055v-100.018c0-2.835-1.598-5.427-4.129-6.7z" fill="#ffcdbe"></path><g fill="#ebae9d"><path d="m385.899 414.914s-37.368 5.76-94.833 5.76c-51.16 0-142.36-21.248-177.154-47.849-1.834-1.402-3.4-3.025-4.699-4.797-1.906 8.668 1.183 18.051 8.699 23.797 34.794 26.601 121.994 48.849 173.154 48.849 57.465 0 94.833-5.76 94.833-5.76l107.73 54.199c4.988 2.509 10.871-1.116 10.871-6.7v-7.831z"></path><path d="m210.267 339.184c.585-4.101-2.265-7.899-6.365-8.484-24.571-3.507-77.352-15.433-120.481-36.926-5.88-2.93-12.223-7.136-16.32-12.079-2.451 10.65 2.799 21.916 13.118 26.667 43.772 20.151 85.132 31.989 121.564 37.188 4.1.585 7.899-2.265 8.484-6.366z"></path><path d="m99.927 265.552c43.772 20.151 96.505 33.188 121.564 33.188 4.142 0 7.5-3.358 7.5-7.5s-3.358-7.5-7.5-7.5c-24.82 0-77.792-13.037-121.564-33.188-5.248-2.416-10.121-5.831-13.446-9.914-1.527 10.11 3.693 20.423 13.446 24.914z"></path><path d="m216.007 375.244c-24.423-4.424-82.474-20.255-125.141-42.65-5.133-2.694-9.519-5.754-12.277-9.336-2.282 10.559 2.961 21.657 13.181 26.362 43.772 20.151 88.914 34.47 121.564 40.384 4.076.738 7.978-1.967 8.717-6.043.737-4.076-1.968-7.979-6.044-8.717z"></path><path d="m404.824 232.9c5.117 13.266 10.46 23.978 16.07 48.923l13.52 60.123c1.177 5.235 7.31 7.576 11.677 4.457l4.803-3.431-13.155-58.496c-4.612-20.508-16.257-38.755-32.915-51.576z"></path></g><path d="m55.893 199.645h-48.393c-4.142 0-7.5-3.358-7.5-7.5s3.358-7.5 7.5-7.5h48.393c4.142 0 7.5 3.358 7.5 7.5s-3.358 7.5-7.5 7.5z" fill="#f8e883"></path><path d="m72.048 126.907c-.957 0-1.928-.184-2.867-.573l-44.709-18.519c-3.827-1.585-5.644-5.973-4.059-9.799 1.585-3.827 5.972-5.645 9.799-4.059l44.709 18.519c3.827 1.585 5.644 5.973 4.059 9.799-1.196 2.888-3.989 4.632-6.932 4.632z" fill="#f8e883"></path><path d="m111.402 63.796c-1.919 0-3.839-.732-5.303-2.197l-34.219-34.219c-2.929-2.929-2.929-7.678 0-10.606s7.678-2.93 10.606 0l34.218 34.219c2.929 2.929 2.929 7.678 0 10.606-1.463 1.464-3.383 2.197-5.302 2.197z" fill="#f8e883"></path></g></svg>