<svg id="fi_17791769" enable-background="new 0 0 512 512" viewBox="0 0 512 512" xmlns="http://www.w3.org/2000/svg"><g><g><path clip-rule="evenodd" d="m178.837 89.238c14.258 0 25.909 11.679 25.909 25.908v-39.515c0-14.23 11.65-25.88 25.909-25.88 14.23 0 25.909 11.65 25.909 25.88v-42.718c0-14.258 11.65-25.909 25.88-25.909 14.258 0 25.909 11.65 25.909 25.909v45.156c0-14.23 11.65-25.88 25.909-25.88 14.229 0 25.909 11.65 25.909 25.88v116.816 48.813 47.537l.425.425 66.189-85.266c10.715-13.776 30.756-16.299 44.561-5.584l16.072 12.472c4.96 3.855 5.868 11.055 2.013 15.988l-100.916 129.968-29.792 39.6v24.208l-69.534 31.323-104.598-31.323v-25.937l-30.529-52.526-.992-98.532c-.085-.765-.113-1.559-.113-2.353v-8.532-120.02c-.001-14.229 11.65-25.908 25.88-25.908z" fill="#f7c5b8" fill-rule="evenodd"></path></g><g><path clip-rule="evenodd" d="m160.61 423.046h232.951v81.95h-232.951z" fill="#365f7f" fill-rule="evenodd"></path></g><g><path d="m289.901 335.74c-.646 0-1.301-.09-1.952-.279-3.714-1.077-5.853-4.96-4.775-8.674 5.748-19.831 14.922-31.843 28.869-37.804 12.263-5.241 26.255-5.046 42.452-4.822 1.883.026 3.797.053 5.739.071 3.867.036 6.973 3.2 6.937 7.066-.035 3.845-3.163 6.937-7 6.937-.021 0-.044 0-.065 0-1.966-.019-3.9-.045-5.805-.072-30.994-.431-48.058-.667-57.678 32.522-.888 3.064-3.686 5.055-6.722 5.055z" fill="#f2a183"></path></g><g><path d="m308.351 245.115c-3.867 0-7.002-3.135-7.002-7.001v-160.045c0-3.867 3.135-7.001 7.002-7.001s7.002 3.135 7.002 7.001v160.044c0 3.867-3.135 7.002-7.002 7.002z" fill="#f2a183"></path></g><g><path d="m256.562 249.962c-3.867 0-7.002-3.135-7.002-7.001v-167.33c0-3.867 3.135-7.001 7.002-7.001s7.002 3.135 7.002 7.001v167.329c0 3.867-3.135 7.002-7.002 7.002z" fill="#f2a183"></path></g><g><path d="m204.746 248.771c-3.867 0-7.002-3.135-7.002-7.001v-126.624c0-3.867 3.135-7.001 7.002-7.001s7.002 3.135 7.002 7.001v126.624c0 3.866-3.135 7.001-7.002 7.001z" fill="#f2a183"></path></g><g><path clip-rule="evenodd" d="m126.821 370.349c58.734 0 106.611-47.905 106.611-106.639s-47.877-106.611-106.611-106.611-106.64 47.877-106.64 106.611 47.906 106.639 106.64 106.639z" fill="#8db9ff" fill-rule="evenodd"></path></g><g><path clip-rule="evenodd" d="m138.471 204.693 48.161 83.31c3.543 6.151 3.543 13.181 0 19.332-3.543 6.18-9.638 9.695-16.753 9.695h-86.145c-7.115 0-13.238-3.572-16.781-9.751-3.543-6.208-3.487-13.266.142-19.417l49.096-83.282c2.381-4.053 6.463-6.35 11.168-6.35 4.706.028 8.759 2.381 11.112 6.463z" fill="#ffd06c" fill-rule="evenodd"></path></g><g><path d="m126.821 270.712c-3.867 0-7.002-3.135-7.002-7.001v-25.795c0-3.867 3.135-7.001 7.002-7.001s7.002 3.135 7.002 7.001v25.795c0 3.866-3.135 7.001-7.002 7.001z" fill="#ec5a6e"></path></g><g><path d="m126.821 290.356c-3.867 0-7.002-3.135-7.002-7.001v-.312c0-3.867 3.135-7.001 7.002-7.001s7.002 3.135 7.002 7.001v.312c0 3.866-3.135 7.001-7.002 7.001z" fill="#ec5a6e"></path></g></g></svg>