<svg id="fi_11261598" enable-background="new 0 0 512 512" viewBox="0 0 512 512" xmlns="http://www.w3.org/2000/svg"><g><g><path d="m382.947 417.527c2.424-5.151 3.785-10.9 3.785-16.97 0-22.042-17.869-39.911-39.911-39.911-21.539 0-39.082 17.064-39.873 38.409-.182-.002-.361-.014-.543-.014-22.042 0-39.911 17.869-39.911 39.911 0 1.276.066 2.536.183 3.782-4.858-2.104-10.214-3.276-15.845-3.276-22.042 0-39.911 17.869-39.911 39.911 0 6.351 1.49 12.352 4.13 17.682h163.093c22.042 0 39.911-17.869 39.911-39.911-.001-20.416-15.333-37.239-35.108-39.613z" fill="#e5e1e5"></path><path d="m382.947 417.527c2.424-5.151 3.785-10.9 3.785-16.97 0-22.042-17.869-39.911-39.911-39.911-21.539 0-39.082 17.064-39.873 38.409-.182-.002-.361-.014-.543-.014-22.042 0-39.911 17.869-39.911 39.911 0 1.276.066 2.536.183 3.782-4.858-2.104-10.214-3.276-15.845-3.276-22.042 0-39.911 17.869-39.911 39.911 0 6.351 1.49 12.352 4.13 17.682h163.093c22.042 0 39.911-17.869 39.911-39.911-.001-20.416-15.333-37.239-35.108-39.613z" fill="#e5e1e5"></path><path d="m382.947 417.527c2.424-5.151 3.785-10.9 3.785-16.97 0-22.042-17.869-39.911-39.911-39.911-5.34 0-10.432 1.051-15.086 2.954 10.666 10.997 17.265 25.96 17.265 42.396v10.695c0 27.668-22.637 50.306-50.306 50.306h-85.809c-1.27 3.896-1.965 8.052-1.965 12.373 0 6.351 1.49 12.352 4.13 17.682h163.093c22.042 0 39.911-17.869 39.911-39.911 0-20.417-15.332-37.24-35.107-39.614z" fill="#d7d0d6"></path><circle cx="363.67" cy="299.516" fill="#e5e1e5" r="22.734"></circle><circle cx="30.234" cy="436.932" fill="#e5e1e5" r="17.682"></circle><g><g><path d="m253.723 229.643c-30.922-15.731-69.695-10.689-95.555 15.172-6.681 6.681-11.972 14.224-15.873 22.271-16.95 34.957-48.921 60.292-86.446 70.347l-29.71 7.961c-3.756 1.007-5.015 5.702-2.265 8.452l49.246 49.246 28.12-7.535-7.535 28.121 71.89 71.89c2.75 2.75 7.446 1.492 8.452-2.265l8.346-31.149c10.029-37.428 36.131-68.116 70.801-85.42 7.811-3.898 15.13-9.117 21.627-15.657 25.505-25.673 30.555-64.542 14.921-95.414z" fill="#c96e59"></path><g><path d="m289.743 265.663-17.162-17.162c5.385 27.441-2.465 57.022-23.442 78.137-6.85 6.895-14.567 12.397-22.802 16.507-36.553 18.244-64.072 50.598-74.646 90.059l-8.8 32.84c-.475 1.773-1.732 3.013-3.233 3.587l25.936 25.936c2.75 2.75 7.446 1.492 8.452-2.265l8.346-31.149c10.029-37.428 36.131-68.116 70.801-85.42 7.811-3.898 15.13-9.117 21.627-15.657 25.507-25.672 30.557-64.541 14.923-95.413z" fill="#bb5d4c"></path></g></g><path d="m502.137 34.751-17.447-17.447c-3.15-3.15-8.258-3.15-11.408 0l-178.781 178.782 28.855 28.854 178.781-178.781c3.151-3.15 3.151-8.258 0-11.408z" fill="#ffd15b"></path><path d="m494.869 27.483-158.391 158.391c-3.905 3.905-10.237 3.905-14.142 0l-8.812-8.811-19.024 19.024 28.855 28.854 178.782-178.782c3.15-3.15 3.15-8.258 0-11.408z" fill="#ffc344"></path><path d="m293.351 270.685-44.594-44.594c-3.938-3.938-3.938-10.322 0-14.26l24.321-24.321c3.938-3.938 10.322-3.938 14.26 0l44.594 44.594c3.938 3.938 3.938 10.322 0 14.26l-24.321 24.321c-3.938 3.937-10.322 3.937-14.26 0z" fill="#ffe177"></path><path d="m323.282 223.454-15.672 15.672c-3.938 3.938-10.322 3.938-14.26 0l-35.944-35.944-8.65 8.65c-3.938 3.938-3.938 10.322 0 14.26l44.594 44.594c3.938 3.938 10.322 3.938 14.26 0l24.321-24.321c3.938-3.938 3.938-10.322 0-14.26z" fill="#ffd15b"></path></g><circle cx="446.088" cy="377.483" fill="#e5e1e5" r="17.682"></circle></g><g><path d="m113.879 168.111c4.143 0 7.5-3.358 7.5-7.5 0-13.603 8.59-25.852 21.375-30.482 2.195-.795 3.895-2.566 4.598-4.793.703-2.226.33-4.652-1.01-6.564-3.771-5.379-5.765-11.7-5.765-18.28 0-17.593 14.312-31.906 31.905-31.906s31.906 14.313 31.906 31.906c0 .561-.016 1.118-.044 1.671-.104 2.006.603 3.971 1.96 5.452 1.357 1.482 3.252 2.357 5.26 2.429 17.507.631 31.22 14.854 31.22 32.379 0 17.872-14.54 32.412-32.411 32.412-4.143 0-7.5 3.358-7.5 7.5s3.357 7.5 7.5 7.5c26.143 0 47.411-21.269 47.411-47.412 0-23.231-16.476-42.497-38.626-46.596-2.349-23.683-22.386-42.242-46.676-42.242-25.863 0-46.905 21.042-46.905 46.906 0 6.72 1.414 13.256 4.137 19.274-14.236 8.417-23.335 23.915-23.335 40.845 0 4.143 3.357 7.501 7.5 7.501z"></path><path d="m35.407 300.301c1.919 0 3.839-.732 5.304-2.197 2.929-2.929 2.929-7.678-.001-10.606-6.026-6.026-9.345-14.039-9.345-22.561s3.318-16.535 9.346-22.561c6.025-6.026 14.038-9.345 22.561-9.345s16.534 3.319 22.559 9.343c.396.397.781.802 1.152 1.214 1.346 1.492 3.234 2.382 5.241 2.47 2.02.087 3.966-.633 5.438-2.001 6.503-6.049 14.967-9.117 23.87-8.618 4.102.229 7.674-2.939 7.902-7.074.229-4.136-2.938-7.674-7.074-7.903-10.596-.586-20.811 2.286-29.378 8.172-8.36-6.867-18.749-10.603-29.71-10.603-12.529 0-24.309 4.879-33.167 13.738-8.86 8.859-13.739 20.639-13.739 33.168s4.879 24.308 13.739 33.167c1.463 1.465 3.383 2.197 5.302 2.197z"></path><path d="m30.234 462.114c13.885 0 25.182-11.297 25.182-25.183 0-13.885-11.297-25.182-25.182-25.182-13.886 0-25.183 11.297-25.183 25.182.001 13.886 11.298 25.183 25.183 25.183zm0-35.365c5.614 0 10.182 4.568 10.182 10.182 0 5.615-4.567 10.183-10.182 10.183s-10.183-4.568-10.183-10.183c.001-5.614 4.569-10.182 10.183-10.182z"></path><path d="m329.821 426.401c-16.671 0-30.234 13.563-30.234 30.234 0 4.142 3.357 7.5 7.5 7.5s7.5-3.358 7.5-7.5c0-8.4 6.834-15.234 15.234-15.234 4.143 0 7.5-3.358 7.5-7.5s-3.357-7.5-7.5-7.5z"></path><path d="m171.396 286.167c-3.729-1.808-8.213-.25-10.021 3.477-6.817 14.061-15.954 26.52-27.156 37.032-3.021 2.834-3.172 7.581-.337 10.602 1.476 1.573 3.471 2.368 5.471 2.368 1.839 0 3.683-.673 5.13-2.031 12.545-11.772 22.77-25.71 30.391-41.427 1.806-3.727.249-8.214-3.478-10.021z"></path><path d="m507.449 29.448-17.448-17.448c-6.068-6.068-15.944-6.069-22.015 0l-172.77 172.772-2.566-2.566c-3.321-3.321-7.736-5.15-12.434-5.15s-9.112 1.829-12.434 5.15l-24.321 24.321c-2.675 2.675-4.291 6.007-4.879 9.481-30.277-7.663-63.129.924-85.709 23.503-7.131 7.13-12.957 15.306-17.318 24.302-15.761 32.504-45.518 56.697-81.641 66.375l-29.71 7.961c-4.383 1.174-7.7 4.493-8.875 8.876s.04 8.916 3.248 12.124l19.475 19.475c.031.033.064.063.095.095l29.676 29.676c1.896 1.896 4.658 2.635 7.245 1.941l15.573-4.173-4.173 15.573c-.693 2.588.046 5.35 1.94 7.245l60.569 60.569h-141.477c-4.143 0-7.5 3.358-7.5 7.5s3.357 7.5 7.5 7.5h428.414c4.143 0 7.5-3.358 7.5-7.5s-3.357-7.5-7.5-7.5h-23.215c7.963-8.485 12.855-19.884 12.855-32.411 0-20.844-13.558-38.859-32.728-45.084.934-3.733 1.404-7.577 1.404-11.499 0-26.143-21.269-47.411-47.411-47.411-23.284 0-42.596 16.565-46.628 38.801-21.182 2.783-38.004 19.604-40.794 40.784-2.808-.514-5.669-.772-8.567-.772-26.143 0-47.411 21.269-47.411 47.411 0 3.467.38 6.866 1.107 10.182h-21.703l6.821-25.456c9.289-34.669 33.676-64.065 66.906-80.651 8.727-4.355 16.666-10.103 23.6-17.082 22.35-22.498 30.831-55.258 23.224-85.487 3.498-.578 6.855-2.196 9.548-4.888l24.321-24.321c6.854-6.856 6.854-18.011 0-24.867l-2.567-2.567 172.773-172.771c6.068-6.069 6.068-15.944 0-22.013zm-289.029 449.921c0-17.872 14.54-32.411 32.411-32.411 4.462 0 8.79.895 12.864 2.659 2.434 1.054 5.243.744 7.387-.813 2.146-1.558 3.31-4.132 3.061-6.772-.1-1.062-.15-2.098-.15-3.079 0-17.871 14.537-32.409 32.45-32.409h.005l.399.011c4.096.053 7.445-3.151 7.596-7.222.647-17.488 14.87-31.187 32.378-31.187 17.871 0 32.411 14.54 32.411 32.411 0 4.811-1.033 9.445-3.071 13.776-1.025 2.18-.942 4.719.225 6.827 1.168 2.107 3.275 3.526 5.668 3.813 16.249 1.95 28.502 15.779 28.502 32.167 0 17.872-14.54 32.411-32.412 32.411h-158.09c-1.086-3.264-1.634-6.673-1.634-10.182zm51.089-123.578c-5.779 5.819-12.394 10.607-19.656 14.232-37.07 18.502-64.296 51.375-74.695 90.189l-7.25 27.054-20.509-20.509 10.09-37.659c2.398-8.949 5.808-17.618 10.132-25.767 1.941-3.659.55-8.199-3.109-10.141s-8.2-.549-10.141 3.109c-4.854 9.146-8.68 18.875-11.37 28.916l-7.849 29.294-33.073-33.073 6.414-23.938c.693-2.588-.046-5.35-1.94-7.245-1.896-1.896-4.659-2.634-7.245-1.941l-23.938 6.414-17.36-17.357 29.414-7.882c12.207-3.271 23.893-8.276 34.733-14.876 3.538-2.154 4.66-6.769 2.506-10.307-2.155-3.539-6.771-4.658-10.307-2.506-9.62 5.858-19.988 10.298-30.815 13.199l-37.779 10.123-13.58-13.58 25.614-6.863c40.331-10.807 73.593-37.895 91.255-74.32 3.63-7.487 8.483-14.296 14.428-20.24 21.784-21.786 55.054-27.951 83.174-15.532l4.932 4.932c-11.714-1.223-23.653-.154-35.093 3.254-3.97 1.183-6.229 5.36-5.046 9.33 1.183 3.969 5.358 6.227 9.329 5.045 16.895-5.034 35.093-3.954 51.24 3.047.129.056.261.098.392.146l12.382 12.382c12.361 28.124 6.299 61.348-15.28 83.07zm57.128-114.731-24.32 24.321c-1.009 1.007-2.648 1.006-3.655 0l-44.593-44.593c-1.008-1.008-1.008-2.646 0-3.654l24.321-24.322c.658-.658 1.427-.756 1.826-.756s1.168.099 1.826.757l44.595 44.593c1.008 1.008 1.008 2.647 0 3.654zm170.205-200.204-172.771 172.771-18.248-18.248 172.77-172.771c.221-.222.581-.221.802 0l17.447 17.447h.001c.22.221.22.581-.001.801z"></path><path d="m333.436 299.516c0 16.671 13.563 30.234 30.234 30.234s30.234-13.563 30.234-30.234-13.563-30.234-30.234-30.234-30.234 13.563-30.234 30.234zm45.468 0c0 8.4-6.834 15.234-15.234 15.234s-15.234-6.834-15.234-15.234 6.834-15.234 15.234-15.234 15.234 6.834 15.234 15.234z"></path><path d="m446.088 352.301c-13.886 0-25.183 11.297-25.183 25.182s11.297 25.182 25.183 25.182c13.885 0 25.182-11.297 25.182-25.182s-11.297-25.182-25.182-25.182zm0 35.364c-5.614 0-10.183-4.568-10.183-10.182s4.568-10.182 10.183-10.182 10.182 4.568 10.182 10.182-4.568 10.182-10.182 10.182z"></path></g></g><g></g><g></g><g></g><g></g><g></g><g></g><g></g><g></g><g></g><g></g><g></g><g></g><g></g><g></g><g></g></svg>