<svg enable-background="new 0 0 512 512" height="512" viewBox="0 0 512 512" width="512" xmlns="http://www.w3.org/2000/svg" id="fi_11891927"><g id="guides"></g><g id="icon_1_"><path d="m412.25 307.746c-10.707-11.954-24.285-22.584-40.027-31.423 2.408-6.773 3.777-13.815 3.777-20.323v-136c0-51.409-39.901-81.926-41.6-83.2l-38.4-28.8v45.43c-12.741-3.564-26.268-5.43-40-5.43s-27.258 1.866-40 5.43v-45.43l-38.4 28.8c-1.699 1.274-41.6 31.791-41.6 83.2v136c0 6.508 1.37 13.55 3.777 20.323-15.741 8.839-29.319 19.469-40.027 31.423-18.154 20.268-27.75 43.869-27.75 68.254v16c0 18.35 10.918 44.045 62.935 62.251 32.702 11.445 75.697 17.749 121.065 17.749 45.367 0 88.362-6.304 121.065-17.749 52.016-18.206 62.935-43.901 62.935-62.251v-16c0-24.385-9.596-47.986-27.75-68.254z" fill="#231f20"></path><path d="m192 56s-32 24-32 64v32l32-40z" fill="#242b30"></path><path d="m192 56v56h-16c0-16 16-56 16-56z" fill="#1d2528"></path><path d="m320 56s32 24 32 64v32l-32-40z" fill="#2e373d"></path><path d="m320 56v56h16c0-16-16-56-16-56z" fill="#242b30"></path><path d="m328 96h16l-8 8z" fill="#242b30"></path><path d="m184 96h-16l8 8z" fill="#1d2528"></path><path d="m96 376c0-57.437 71.635-104 160-104s160 46.563 160 104v16c0 30.928-71.635 56-160 56s-160-25.072-160-56z" fill="#2e373d"></path><path d="m256 272v176c88.365 0 160-25.072 160-56v-16c0-57.437-71.635-104-160-104z" fill="#333d42"></path><path d="m256 264c-37.411 0-73.007 8.056-102.151 22.91 1.869 2.877 3.935 5.5 6.151 7.717l33.373 33.373c9.27 9.271 25.516 16 38.627 16h48c13.111 0 29.356-6.729 38.627-16l33.373-33.373c2.217-2.217 4.282-4.84 6.151-7.716-29.144-14.855-64.74-22.911-102.151-22.911z" fill="#1d2528"></path><path d="m256 264v80h24c13.111 0 29.356-6.729 38.627-16l33.373-33.373c2.217-2.217 4.282-4.84 6.151-7.716-29.144-14.855-64.74-22.911-102.151-22.911z" fill="#242b30"></path><path d="m256 72c-53.019 0-96 32.236-96 72v16 96c0 8.8 5.091 21.091 11.313 27.313l33.373 33.373c6.223 6.223 18.514 11.314 27.314 11.314h48c8.8 0 21.091-5.091 27.313-11.313l33.373-33.373c6.223-6.223 11.314-18.514 11.314-27.314v-96-16c0-39.764-42.98-72-96-72z" fill="#242b30"></path><path d="m256 72v48h16l-32 16h32l-16 8v48l-8 56h8v80h24c8.8 0 21.091-5.091 27.313-11.313l33.373-33.373c6.223-6.223 11.314-18.514 11.314-27.314v-96-16c0-39.764-42.98-72-96-72z" fill="#2e373d"></path><path d="m136 376v53.036c2.565 1.017 5.233 2.001 8 2.95v-63.986c-4.418 0-8 3.582-8 8z" fill="#242b30"></path><path d="m376 429.036v-53.036c0-4.418-3.582-8-8-8v63.986c2.767-.949 5.436-1.933 8-2.95z" fill="#242b30"></path><path d="m176 240v8c0 4.555 3.406 12.779 6.627 16l33.373 33.373c3.221 3.221 11.445 6.627 16 6.627h48c4.555 0 12.779-3.406 16-6.627l33.373-33.373c3.221-3.221 6.627-11.445 6.627-16v-8h-56l-16 8h-16l-16-8z" fill="#d49f8f"></path><path d="m256 256v48h24c4.555 0 12.779-3.406 16-6.627l33.373-33.373c3.221-3.221 6.627-11.445 6.627-16h-53.998l-16 8z" fill="#e9ad9a"></path><g><path d="m322.995 181.005 8 16v8h-56v-10.996z" fill="#242b30"></path><path d="m274.995 205.005v-8l45.998-5.998 10.002 13.998z" fill="#fff"></path></g><g><path d="m189.005 181.005-8 16v8h56v-10.996z" fill="#1a2023"></path><path d="m237.005 205.005v-8l-45.998-5.998-10.002 13.998z" fill="#fff"></path></g><path d="m256 272v8h16c4.418 0 8-3.582 8-8z" fill="#d49f8f"></path><path d="m256 312-16 8h16z" fill="#2e373d"></path><path d="m256 312 16-8h-16z" fill="#242b30"></path><ellipse cx="256" cy="392" fill="#2e373d" rx="48" ry="40"></ellipse><ellipse cx="256" cy="392" fill="#f7ce3e" rx="40" ry="32"></ellipse><path d="m256.001 370.002c-1.698 0-3.269.532-4.564 1.435l-3.436-3.437v12c0 2.209-1.791 4-4 4s-4-1.791-4-4v-10.167c-9.563 4.427-16.001 12.692-16.001 22.167s6.438 17.74 16.001 22.167v-10.164c-.001-1.024.39-2.05 1.171-2.831 1.562-1.563 4.095-1.563 5.657 0l9.172 14.828 9.171-14.828c1.563-1.563 4.096-1.563 5.658 0 .781.781 1.172 1.807 1.171 2.831v10.163c9.562-4.427 16-12.692 16-22.166s-6.438-17.739-16-22.166v10.166c0 2.209-1.791 4-4 4s-4-1.791-4-4v-12l-3.437 3.437c-1.294-.903-2.865-1.435-4.563-1.435z" fill="#1d2528"></path></g></svg>